#!OML:ASF F:\VICON\USERDATA\INSTALL\rory3\rory3.ASF
:FULLY-SPECIFIED
:DEGREES
247
root 7.44807 17.8097 -8.0818 4.30166 -56.9483 1.79694
lowerback 3.39148 2.30316 -0.515788
upperback 1.07328 3.04488 0.113442
thorax -0.831394 1.51807 0.280963
lowerneck -6.18404 -2.13737 -5.57385
upperneck 21.5435 -2.87417 2.1684
head 7.75875 -1.70982 1.39584
rclavicle 7.94642e-014 -3.18055e-015
rhumerus -30.9062 -1.98836 -81.7003
rradius 29.4847
rwrist -2.62967
rhand -11.0325 16.5492
rfingers 7.12502
rthumb 14.9891 -12.8883
lclavicle 7.94642e-014 -3.18055e-015
lhumerus -39.1517 -0.849734 83.2125
lradius 26.7529
lwrist 7.02673
lhand -4.01027 27.3972
lfingers 7.12502
lthumb 21.7441 56.1959
rfemur 1.15362 4.91968 25.4508
rtibia 15.4847
rfoot -21.1472 -10.1303
rtoes -5.91327
lfemur -30.127 -5.85809 -20.5223
ltibia 11.0848
lfoot -10.0471 10.5656
ltoes -28.505
248
root 7.36569 17.7952 -8.01707 4.57362 -57.2047 1.53553
lowerback 3.36119 2.31727 -0.474609
upperback 1.05131 3.06499 0.0765936
thorax -0.833003 1.52826 0.220321
lowerneck -6.26953 -2.09004 -5.397
upperneck 21.5685 -2.80429 2.04924
head 7.77498 -1.67321 1.33203
rclavicle -8.46823e-014 1.03368e-014
rhumerus -30.969 -1.88092 -81.8514
rradius 29.5745
rwrist -2.99438
rhand -11.0824 16.44
rfingers 7.12502
rthumb 14.9412 -13.0011
lclavicle -8.46823e-014 1.03368e-014
lhumerus -39.2594 0.134769 82.5078
lradius 25.9471
lwrist 6.00388
lhand -3.98157 27.3949
lfingers 7.12502
lthumb 21.7717 56.1904
rfemur 1.56758 4.89832 25.5683
rtibia 15.2675
rfoot -21.161 -10.2016
rtoes -6.55553
lfemur -30.1117 -5.82431 -20.3584
ltibia 11.0247
lfoot -10.2039 10.9724
ltoes -28.1163
249
root 7.28358 17.7796 -7.94958 4.92298 -57.4417 1.09346
lowerback 3.4146 2.31423 -0.299201
upperback 1.03305 3.06646 0.0716836
thorax -0.872103 1.52898 0.114697
lowerneck -6.25503 -2.02006 -5.31336
upperneck 21.5278 -2.70813 1.99366
head 7.75279 -1.62589 1.30815
rclavicle 3.18552e-014 -2.38542e-015
rhumerus -31.1116 -1.4064 -82.1049
rradius 29.7393
rwrist -3.82648
rhand -11.1436 16.3243
rfingers 7.12502
rthumb 14.8822 -13.1212
lclavicle 3.18552e-014 -2.38542e-015
lhumerus -39.4044 1.13822 81.8161
lradius 25.1188
lwrist 4.97546
lhand -3.87653 27.4368
lfingers 7.12502
lthumb 21.8725 56.2206
rfemur 2.0114 4.79481 25.7747
rtibia 15.1536
rfoot -21.0519 -10.1518
rtoes -7.75872
lfemur -30.0755 -5.8511 -20.0781
ltibia 11.2355
lfoot -10.3495 11.1808
ltoes -27.4037
250
root 7.19675 17.7649 -7.88211 5.00951 -57.6349 1.00123
lowerback 3.39579 2.35437 -0.285087
upperback 1.0135 3.1199 0.0050794
thorax -0.877428 1.55579 0.0369175
lowerneck -6.21036 -2.0183 -5.42918
upperneck 21.51 -2.71742 2.11563
head 7.7424 -1.62892 1.36745
rclavicle 3.82164e-014 -2.78299e-015
rhumerus -31.2812 -1.32588 -82.2049
rradius 29.8167
rwrist -4.17308
rhand -11.3799 16.1881
rfingers 7.12502
rthumb 14.6545 -13.2741
lclavicle 3.82164e-014 -2.78299e-015
lhumerus -39.5126 1.69001 81.2587
lradius 24.3597
lwrist 4.16374
lhand -3.75485 27.5944
lfingers 7.12502
lthumb 21.9894 56.3645
rfemur 2.39712 4.75066 25.8012
rtibia 15.1402
rfoot -21.142 -10.0486
rtoes -8.0972
lfemur -30.0758 -5.74212 -20.093
ltibia 11.6494
lfoot -10.3857 11.2625
ltoes -27.5581
251
root 7.10815 17.7481 -7.81504 4.93342 -57.7844 1.13705
lowerback 3.34824 2.40263 -0.392158
upperback 0.998831 3.17971 -0.109537
thorax -0.865398 1.58585 -0.0212025
lowerneck -6.18172 -2.04687 -5.55622
upperneck 21.4618 -2.76917 2.26058
head 7.72712 -1.65003 1.43237
rclavicle -4.82053e-014 -9.14409e-015
rhumerus -31.3898 -1.56133 -82.2374
rradius 29.7925
rwrist -4.17091
rhand -11.5692 16.0806
rfingers 7.12502
rthumb 14.4721 -13.3948
lclavicle -4.82053e-014 -9.14409e-015
lhumerus -39.5393 2.07982 80.732
lradius 23.6189
lwrist 3.51568
lhand -3.80076 27.6993
lfingers 7.12502
lthumb 21.9453 56.4746
rfemur 2.72346 4.57751 25.6801
rtibia 15.1946
rfoot -21.355 -9.90938
rtoes -8.61036
lfemur -30.0938 -5.65545 -20.2554
ltibia 12.2044
lfoot -10.4874 11.2824
ltoes -26.7793
252
root 7.02087 17.7302 -7.74691 4.92378 -57.9246 1.17237
lowerback 3.30585 2.38746 -0.57294
upperback 1.00828 3.15348 -0.140181
thorax -0.839966 1.57277 0.0514115
lowerneck -6.18341 -2.00308 -5.67016
upperneck 21.3803 -2.70712 2.345
head 7.70054 -1.62071 1.48464
rclavicle 7.41964e-014 -2.78299e-015
rhumerus -31.4681 -1.58023 -82.2724
rradius 29.8086
rwrist -4.11246
rhand -11.5636 16.0686
rfingers 7.12502
rthumb 14.4775 -13.4064
lclavicle 7.41964e-014 -2.78299e-015
lhumerus -39.6078 2.84794 80.1549
lradius 22.943
lwrist 2.77187
lhand -3.89112 27.7063
lfingers 7.12502
lthumb 21.8585 56.4917
rfemur 2.99111 4.39401 25.605
rtibia 15.382
rfoot -21.4039 -9.83707
rtoes -10.3756
lfemur -30.0555 -5.72087 -20.3125
ltibia 12.7792
lfoot -10.593 11.4283
ltoes -25.5875
253
root 6.92991 17.7124 -7.67788 5.09893 -58.1027 0.955918
lowerback 3.25955 2.42361 -0.618722
upperback 1.02537 3.20025 -0.163213
thorax -0.798046 1.59603 0.0541322
lowerneck -6.23058 -1.97224 -5.67964
upperneck 21.4055 -2.6786 2.4311
head 7.71701 -1.60028 1.51675
rclavicle -6.69159e-014 3.27995e-015
rhumerus -31.6107 -1.71945 -82.2724
rradius 29.8277
rwrist -3.95039
rhand -11.4857 16.163
rfingers 7.12502
rthumb 14.5526 -13.3065
lclavicle -6.69159e-014 3.27995e-015
lhumerus -39.682 3.53997 79.57
lradius 22.3762
lwrist 2.05186
lhand -3.99477 27.7588
lfingers 7.12502
lthumb 21.759 56.5557
rfemur 3.28768 4.51242 25.7259
rtibia 15.6085
rfoot -21.5093 -9.87135
rtoes -11.4325
lfemur -29.9794 -5.64889 -20.2555
ltibia 13.4373
lfoot -10.6658 11.4493
ltoes -25.0173
254
root 6.83569 17.6941 -7.6072 5.14709 -58.3075 0.905531
lowerback 3.19084 2.50707 -0.733819
upperback 1.03239 3.30766 -0.237078
thorax -0.755238 1.64962 0.0420025
lowerneck -6.34053 -1.98267 -5.64401
upperneck 21.5378 -2.70903 2.4984
head 7.78204 -1.60695 1.52957
rclavicle -1.03902e-013 1.92821e-014
rhumerus -31.774 -2.10087 -82.2231
rradius 29.8234
rwrist -3.63711
rhand -11.4 16.1263
rfingers 7.12502
rthumb 14.6351 -13.3373
lclavicle -1.03902e-013 1.92821e-014
lhumerus -39.6859 4.07837 78.9826
lradius 21.8222
lwrist 1.425
lhand -3.89604 27.8953
lfingers 7.12502
lthumb 21.8538 56.6812
rfemur 3.65053 4.86395 25.7854
rtibia 15.7346
rfoot -21.6737 -10.0193
rtoes -11.8052
lfemur -29.9114 -5.57317 -20.3097
ltibia 14.2135
lfoot -10.6844 11.5374
ltoes -25.0509
255
root 6.74147 17.6784 -7.53287 5.06337 -58.5102 0.941713
lowerback 3.15742 2.56146 -0.865555
upperback 1.0588 3.37542 -0.320198
thorax -0.712534 1.68319 0.0302184
lowerneck -6.30783 -1.98035 -5.55769
upperneck 21.4926 -2.71034 2.45793
head 7.75925 -1.60414 1.50179
rclavicle -4.71865e-014 2.78299e-015
rhumerus -32.0037 -1.97462 -82.3549
rradius 29.9512
rwrist -3.85026
rhand -11.4091 15.8955
rfingers 7.12502
rthumb 14.6264 -13.5687
lclavicle -4.71865e-014 2.78299e-015
lhumerus -39.6999 4.75401 78.3199
lradius 21.2589
lwrist 0.654999
lhand -3.83754 27.8268
lfingers 7.12502
lthumb 21.91 56.6062
rfemur 4.14886 5.02764 25.7394
rtibia 15.7339
rfoot -21.7604 -9.96082
rtoes -12.0102
lfemur -29.742 -5.34726 -20.5596
ltibia 14.9735
lfoot -10.156 11.8865
ltoes -26.9216
256
root 6.64828 17.675 -7.45642 4.96956 -58.7461 0.948943
lowerback 3.1686 2.61297 -0.929795
upperback 1.08563 3.44067 -0.421128
thorax -0.68933 1.7155 -0.0393163
lowerneck -6.219 -1.97345 -5.52761
upperneck 21.3954 -2.70848 2.46119
head 7.71034 -1.60022 1.49863
rclavicle -1.05107e-014 3.926e-015
rhumerus -32.2102 -1.72919 -82.5531
rradius 30.0356
rwrist -4.18186
rhand -11.4539 15.7041
rfingers 7.12502
rthumb 14.5832 -13.7632
lclavicle -1.05107e-014 3.926e-015
lhumerus -39.7786 5.47134 77.6333
lradius 20.8403
lwrist -0.166248
lhand -3.79136 27.7076
lfingers 7.12502
lthumb 21.9543 56.4818
rfemur 4.6657 5.06906 25.6536
rtibia 15.7327
rfoot -21.7489 -9.79505
rtoes -12.6015
lfemur -29.5383 -5.03947 -20.808
ltibia 15.5508
lfoot -9.13778 12.4199
ltoes -28.7967
257
root 6.55357 17.6796 -7.37646 4.75715 -59.0345 1.14132
lowerback 3.13388 2.6829 -1.08606
upperback 1.10075 3.52778 -0.57071
thorax -0.654989 1.75865 -0.106202
lowerneck -6.28675 -1.9495 -5.45788
upperneck 21.4903 -2.69575 2.51523
head 7.75265 -1.58496 1.50538
rclavicle 3.13342e-014 -1.12375e-014
rhumerus -32.362 -1.82456 -82.6592
rradius 29.9738
rwrist -4.12442
rhand -11.3599 15.917
rfingers 7.12502
rthumb 14.6738 -13.5437
lclavicle 3.13342e-014 -1.12375e-014
lhumerus -39.9136 5.90556 77.0765
lradius 20.6051
lwrist -0.684158
lhand -3.68512 27.8492
lfingers 7.12502
lthumb 22.0563 56.6114
rfemur 5.12757 5.21891 25.4572
rtibia 15.7657
rfoot -21.5904 -9.68673
rtoes -13.4959
lfemur -29.415 -4.99955 -20.9435
ltibia 15.9755
lfoot -8.43023 12.8558
ltoes -27.0559
